<?xml version="1.0" standalone="no"?>
<!DOCTYPE svg PUBLIC "-//W3C//DTD SVG 20010904//EN"
 "http://www.w3.org/TR/2001/REC-SVG-20010904/DTD/svg10.dtd">
<svg version="1.0" xmlns="http://www.w3.org/2000/svg"
 width="357.000000pt" height="171.000000pt" viewBox="0 0 357.000000 171.000000"
 preserveAspectRatio="xMidYMid meet">

<g transform="translate(0.000000,171.000000) scale(0.100000,-0.100000)"
fill="#000000" stroke="none">
<path d="M274 971 c-77 -35 -127 -126 -127 -233 0 -48 5 -75 20 -100 58 -100
203 -114 286 -27 l37 40 0 -46 c0 -29 4 -45 13 -45 9 0 12 27 10 107 l-1 108
-81 0 c-47 0 -81 -4 -81 -10 0 -6 30 -10 70 -10 80 0 85 -7 50 -82 -30 -68
-96 -100 -177 -88 -64 9 -109 54 -118 118 -14 92 36 206 106 243 46 23 141 15
173 -15 27 -25 47 -12 24 16 -36 44 -135 55 -204 24z"/>
<path d="M2260 776 c0 -187 2 -216 15 -216 13 0 15 28 13 212 -2 158 -6 212
-15 216 -10 3 -13 -44 -13 -212z"/>
<path d="M2554 973 c-4 -10 -32 -71 -62 -136 -45 -96 -59 -117 -74 -114 -19 6
-26 -19 -7 -25 7 -2 0 -27 -20 -66 -36 -70 -36 -72 -17 -72 8 0 29 31 46 69
l32 68 104 7 c58 4 109 4 113 2 5 -3 21 -37 37 -76 21 -51 34 -70 47 -70 10 0
17 3 15 8 -42 82 -119 248 -149 322 -39 96 -54 116 -65 83z m64 -140 c23 -53
40 -98 38 -100 -2 -2 -44 -2 -93 -1 l-90 3 45 98 c25 53 48 97 52 97 4 0 25
-44 48 -97z"/>
<path d="M2863 978 c-42 -9 -53 -21 -33 -33 6 -4 10 -80 10 -196 0 -161 2
-189 15 -189 12 0 15 18 15 100 l0 100 48 0 c65 0 143 24 170 53 31 33 39 90
17 123 -32 50 -132 67 -242 42z m206 -42 c30 -27 27 -71 -7 -106 -28 -28 -100
-50 -162 -50 l-30 0 0 84 c0 58 4 86 13 90 6 3 46 4 88 3 59 -2 82 -6 98 -21z"/>
<path d="M3217 778 c2 -164 5 -214 15 -216 10 -2 13 41 13 205 0 189 -4 222
-25 223 -3 0 -4 -96 -3 -212z"/>
<path d="M694 831 c-34 -21 -67 -63 -78 -98 -4 -13 -12 -23 -19 -23 -8 0 -8
-3 1 -12 7 -7 12 -27 12 -45 0 -22 9 -43 29 -65 26 -29 35 -33 79 -32 50 0
115 31 125 59 4 9 -9 6 -40 -11 -57 -30 -111 -31 -141 -4 -22 21 -39 66 -29
76 3 4 40 10 82 15 105 11 129 24 133 73 6 77 -78 113 -154 67z m124 -28 c19
-26 11 -56 -20 -71 -41 -19 -158 -28 -158 -12 0 23 41 80 68 95 33 19 92 12
110 -12z"/>
<path d="M952 708 c2 -102 6 -143 16 -146 9 -3 12 16 12 75 0 86 17 134 60
164 41 29 73 33 101 11 23 -19 24 -26 26 -133 1 -76 5 -115 13 -117 9 -3 11
29 8 121 -2 106 -6 128 -22 146 -37 40 -128 22 -171 -35 -13 -18 -14 -16 -15
19 0 26 -4 37 -15 37 -13 0 -15 -20 -13 -142z"/>
<path d="M1360 814 c-21 -20 -45 -51 -52 -70 -6 -19 -15 -34 -19 -34 -8 0 4
-60 21 -100 7 -17 27 -36 48 -46 31 -15 43 -15 82 -5 43 12 100 54 100 75 0 5
-10 0 -22 -12 -73 -67 -198 -47 -198 32 0 27 0 27 115 42 80 10 105 28 105 77
0 44 -40 77 -95 77 -38 0 -51 -6 -85 -36z m120 6 c29 -16 43 -46 30 -69 -11
-22 -98 -44 -155 -39 l-35 3 18 35 c21 39 75 80 104 80 11 0 28 -5 38 -10z"/>
<path d="M1640 706 c0 -119 3 -146 14 -146 11 0 15 23 18 106 3 102 4 107 31
130 29 25 90 33 102 14 9 -15 25 -12 25 5 0 40 -85 46 -129 10 l-30 -26 -3 22
c-2 13 -9 24 -15 27 -10 3 -13 -30 -13 -142z"/>
<path d="M1945 807 c-48 -48 -70 -108 -60 -166 17 -96 106 -119 180 -46 19 19
36 35 39 35 2 0 7 -16 10 -35 5 -22 13 -35 23 -35 12 0 13 5 7 23 -4 12 -9 76
-10 142 -2 72 -7 121 -14 123 -5 2 -10 -3 -10 -12 0 -20 -9 -20 -34 -1 -11 8
-35 15 -54 15 -27 0 -44 -9 -77 -43z m131 1 c31 -21 32 -25 27 -73 -13 -121
-112 -196 -174 -134 -46 46 -3 192 65 219 33 14 47 12 82 -12z"/>
</g>
</svg>
