<?xml version="1.0" standalone="no"?>
<!DOCTYPE svg PUBLIC "-//W3C//DTD SVG 20010904//EN"
 "http://www.w3.org/TR/2001/REC-SVG-20010904/DTD/svg10.dtd">
<svg version="1.0" xmlns="http://www.w3.org/2000/svg"
 width="455.000000pt" height="171.000000pt" viewBox="0 0 455.000000 171.000000"
 preserveAspectRatio="xMidYMid meet">

<g transform="translate(0.000000,171.000000) scale(0.100000,-0.100000)"
fill="#000000" stroke="none">
<path d="M427 1243 c-4 -3 -7 -14 -7 -24 0 -22 -256 -259 -279 -259 -40 0 -54
-48 -22 -71 23 -17 93 -273 84 -307 -8 -32 15 -55 48 -48 32 6 311 -84 340
-110 24 -22 63 -15 67 13 5 32 220 233 249 233 12 0 27 9 34 21 9 17 7 25 -11
44 -26 28 -84 281 -76 333 7 48 -2 62 -38 62 -48 0 -307 84 -318 104 -9 16
-58 22 -71 9z m51 -25 c-7 -19 -38 -22 -38 -4 0 10 9 16 21 16 12 0 19 -5 17
-12z m155 -61 c76 -23 139 -47 140 -52 1 -14 -233 -77 -260 -70 -17 4 -22 15
-28 64 -5 48 -1 101 8 101 1 0 64 -19 140 -43z m-170 -45 c11 -89 -3 -101
-160 -139 -68 -17 -123 -28 -122 -24 2 16 246 230 259 228 10 -2 17 -21 23
-65z m375 -14 c-7 -19 -38 -22 -38 -4 0 10 9 16 21 16 12 0 19 -5 17 -12z
m-45 -34 c3 -3 -12 -54 -33 -113 -52 -144 -50 -141 -65 -141 -15 0 -175 170
-175 186 0 6 51 25 113 41 115 32 149 37 160 27z m66 -174 c17 -83 26 -149 21
-154 -5 -5 -36 -1 -74 9 -84 23 -87 35 -42 157 48 131 58 154 62 143 2 -5 17
-75 33 -155z m-359 114 c0 -14 -21 -19 -33 -7 -9 9 13 34 24 27 5 -3 9 -12 9
-20z m-94 -130 c-29 -60 -51 -94 -61 -94 -21 0 -165 111 -165 127 0 7 12 16
28 20 15 3 74 18 132 33 58 15 107 23 109 18 1 -5 -17 -52 -43 -104z m183 9
c44 -48 77 -91 73 -95 -7 -7 -189 -28 -243 -28 -16 0 -29 5 -29 11 0 27 90
199 104 199 8 0 51 -39 95 -87z m-433 46 c10 -17 -13 -36 -27 -22 -12 12 -4
33 11 33 5 0 12 -5 16 -11z m97 -114 c81 -62 85 -81 37 -152 -19 -29 -40 -52
-47 -53 -11 0 -26 43 -58 170 -9 36 -19 73 -22 84 -6 23 1 18 90 -49z m467
-39 c0 -20 -19 -31 -32 -18 -6 6 -7 15 -4 21 10 16 36 13 36 -3z m-344 -27 c7
-12 -15 -31 -28 -23 -4 3 -8 12 -8 20 0 17 26 19 36 3z m301 -5 c15 -14 13
-26 -18 -137 -20 -69 -40 -122 -46 -122 -15 0 -225 237 -217 245 5 5 177 26
237 29 16 0 36 -6 44 -15z m129 -20 c29 -8 57 -20 60 -26 6 -9 -201 -216 -217
-217 -5 -1 48 200 66 247 6 16 26 15 91 -4z m118 -9 c3 -9 -1 -18 -10 -22 -19
-7 -28 2 -21 22 8 19 23 19 31 0z m-425 -144 c50 -57 90 -105 88 -107 -1 -2
-69 18 -151 44 -177 57 -183 63 -130 140 18 28 41 52 51 55 21 5 25 1 142
-132z m-243 8 c10 -17 -13 -36 -27 -22 -12 12 -4 33 11 33 5 0 12 -5 16 -11z
m384 -132 c0 -8 -3 -17 -7 -20 -9 -9 -34 13 -27 24 8 14 34 11 34 -4z"/>
<path d="M1252 969 c-79 -39 -125 -124 -125 -231 0 -48 5 -75 20 -100 58 -100
203 -114 286 -27 l37 40 0 -46 c0 -29 4 -45 13 -45 9 0 12 27 10 107 l-1 108
-81 3 c-70 2 -81 1 -81 -14 0 -14 10 -16 71 -12 l71 4 -5 -38 c-7 -49 -45
-100 -93 -123 -46 -22 -124 -16 -162 12 -96 70 -76 254 37 330 46 31 137 32
175 2 29 -23 55 -17 34 8 -37 45 -138 56 -206 22z"/>
<path d="M3240 776 c0 -187 2 -216 15 -216 13 0 15 28 13 212 -2 158 -6 212
-15 216 -10 3 -13 -44 -13 -212z"/>
<path d="M3533 972 c-3 -11 -29 -71 -59 -134 -43 -91 -57 -113 -74 -112 -23 1
-25 -7 -8 -24 8 -8 4 -26 -20 -71 -36 -66 -37 -71 -19 -71 7 0 28 31 46 69
l34 68 105 8 c122 8 117 11 154 -87 16 -41 28 -58 41 -58 10 0 17 3 15 8 -55
107 -116 238 -147 317 -41 101 -58 123 -68 87z m103 -239 c-2 -2 -44 -2 -94
-1 l-90 3 49 105 50 105 44 -104 c25 -58 43 -106 41 -108z"/>
<path d="M3843 978 c-42 -9 -53 -21 -33 -33 6 -4 10 -80 10 -196 0 -161 2
-189 15 -189 12 0 15 18 15 99 l0 98 69 6 c88 7 136 28 161 69 37 60 19 117
-46 144 -37 16 -127 17 -191 2z m201 -39 c59 -47 15 -127 -82 -148 -29 -6 -66
-11 -82 -11 l-30 0 0 84 c0 58 4 86 13 89 6 3 44 6 83 6 58 1 76 -3 98 -20z"/>
<path d="M4200 987 c-1 -4 -1 -100 -1 -214 0 -164 2 -209 13 -211 10 -2 13 37
11 204 -2 126 -7 212 -13 218 -5 5 -10 7 -10 3z"/>
<path d="M1669 827 c-18 -12 -44 -40 -56 -62 -12 -22 -26 -45 -32 -52 -7 -8
-7 -14 -1 -18 6 -3 10 -17 10 -31 0 -107 125 -147 209 -67 l36 35 -46 -26
c-57 -32 -120 -35 -149 -6 -20 20 -37 67 -27 76 3 4 40 10 81 14 41 5 89 16
105 25 27 13 31 21 31 55 0 74 -89 106 -161 57z m122 -18 c27 -27 21 -60 -13
-77 -39 -18 -158 -28 -158 -13 0 26 33 73 63 91 41 26 82 25 108 -1z"/>
<path d="M1932 708 c2 -102 6 -143 16 -146 9 -3 12 17 12 75 1 108 22 155 84
178 42 16 48 16 70 2 29 -19 38 -62 35 -170 -1 -57 2 -82 10 -85 10 -3 12 25
9 123 -3 119 -4 128 -27 146 -39 32 -94 25 -141 -17 l-40 -36 0 36 c0 26 -4
36 -15 36 -13 0 -15 -20 -13 -142z"/>
<path d="M2341 815 c-21 -19 -45 -50 -52 -68 -7 -17 -16 -34 -20 -37 -12 -9
18 -100 41 -125 31 -33 77 -41 126 -20 41 17 84 52 84 68 0 6 -10 1 -22 -11
-73 -67 -198 -47 -198 32 0 27 0 27 115 42 80 10 105 28 105 77 0 44 -40 77
-95 77 -37 0 -51 -6 -84 -35z m123 4 c28 -13 42 -54 26 -74 -19 -23 -190 -49
-190 -30 0 14 30 62 52 81 38 35 70 42 112 23z"/>
<path d="M2620 706 c0 -123 2 -146 15 -146 12 0 15 18 15 101 0 98 1 101 29
130 21 21 39 29 65 29 19 0 38 -4 41 -10 9 -15 25 -12 25 5 0 40 -85 46 -129
10 l-30 -26 -3 22 c-2 13 -9 24 -15 27 -10 3 -13 -30 -13 -142z"/>
<path d="M2931 814 c-94 -84 -88 -238 10 -259 35 -8 94 19 116 51 20 32 27 30
38 -8 6 -17 16 -34 24 -36 11 -4 12 1 5 19 -4 13 -9 78 -10 144 -2 74 -7 121
-13 123 -6 2 -11 -3 -11 -12 0 -20 -9 -20 -34 -1 -35 26 -82 19 -125 -21z
m125 -6 c31 -21 32 -25 27 -73 -10 -95 -59 -155 -125 -155 -79 0 -95 133 -25
209 42 45 77 50 123 19z"/>
</g>
</svg>
