<?xml version="1.0" standalone="no"?>
<!DOCTYPE svg PUBLIC "-//W3C//DTD SVG 20010904//EN"
 "http://www.w3.org/TR/2001/REC-SVG-20010904/DTD/svg10.dtd">
<svg version="1.0" xmlns="http://www.w3.org/2000/svg"
 width="339.000000pt" height="313.000000pt" viewBox="0 0 339.000000 313.000000"
 preserveAspectRatio="xMidYMid meet">

<g transform="translate(0.000000,313.000000) scale(0.100000,-0.100000)"
fill="#000000" stroke="none">
<path d="M1354 2936 c-49 -21 -74 -61 -74 -117 l0 -47 -425 -391 -424 -391
-55 0 c-47 0 -60 -4 -90 -31 -81 -71 -59 -195 41 -231 18 -7 33 -14 33 -18 0
-3 53 -206 118 -451 118 -444 118 -445 100 -475 -22 -36 -23 -95 -3 -135 33
-63 128 -89 190 -51 l30 19 507 -169 508 -170 17 -35 c25 -53 66 -75 132 -70
48 3 59 9 89 41 31 34 34 42 30 89 l-3 51 315 294 c173 163 338 317 366 344
45 43 53 48 76 39 41 -15 99 3 136 43 27 30 32 43 32 83 0 62 -29 109 -78 130
-20 8 -38 16 -40 17 -1 2 -49 229 -106 506 l-104 504 22 29 c30 41 29 121 -2
164 -32 45 -87 61 -151 44 -47 -12 -51 -11 -514 134 -256 80 -468 145 -471
145 -2 0 -10 16 -16 35 -17 51 -62 85 -113 85 -23 -1 -56 -7 -73 -14z m101
-76 c52 -57 -18 -137 -78 -89 -35 26 -35 61 -1 88 33 26 56 27 79 1z m590
-258 c368 -115 410 -130 407 -147 -2 -11 -5 -21 -7 -23 -1 -2 -189 -53 -416
-113 -321 -86 -417 -109 -429 -100 -23 17 -74 51 -81 53 -4 2 -15 96 -25 209
l-18 206 34 35 34 36 45 -14 c26 -8 231 -71 456 -142z m-640 54 c2 -12 11
-104 20 -206 14 -172 14 -185 -2 -194 -30 -17 -62 -57 -68 -87 -5 -21 -14 -31
-33 -36 -15 -3 -208 -52 -430 -108 -222 -56 -405 -99 -407 -95 -2 3 185 179
416 392 l420 386 40 -16 c25 -9 41 -23 44 -36z m1211 -174 c13 -9 34 -46 34
-62 0 -17 -47 -60 -65 -60 -21 0 -65 44 -65 65 0 38 66 77 96 57z m-124 -149
l26 -28 -144 -394 c-79 -216 -145 -395 -147 -398 -3 -2 -20 -6 -38 -9 -33 -6
-39 0 -264 233 -335 346 -318 325 -307 365 l8 33 415 112 c228 61 417 112 420
112 3 1 17 -11 31 -26z m211 -531 c54 -262 99 -486 102 -497 3 -14 -6 -29 -28
-47 l-33 -27 -85 24 c-46 13 -136 38 -201 55 l-116 32 -7 43 c-3 24 -14 54
-24 67 -19 23 -18 26 132 426 83 221 153 402 156 402 4 0 50 -215 104 -478z
m-1173 378 c39 -39 12 -102 -45 -102 -36 0 -55 20 -55 58 0 56 61 83 100 44z
m-147 -131 c7 -11 -30 -99 -135 -324 l-145 -309 -34 -4 c-19 -2 -39 -8 -46
-14 -7 -5 -18 -6 -26 -1 -8 4 -125 94 -260 198 -223 173 -245 192 -240 215 3
14 10 30 15 35 10 11 836 225 852 221 5 -1 14 -9 19 -17z m441 -313 c146 -151
266 -277 266 -281 0 -5 -18 -44 -25 -52 -2 -4 -790 -73 -825 -73 -18 0 -33 8
-44 25 -16 24 -13 32 128 332 153 329 145 317 217 322 9 0 134 -120 283 -273z
m-1414 164 c35 -35 21 -90 -26 -104 -29 -9 -74 28 -74 60 0 29 33 64 60 64 11
0 29 -9 40 -20z m300 -377 l246 -191 -4 -40 c-2 -24 3 -52 12 -70 l16 -32
-121 -174 -122 -174 -36 5 c-20 3 -38 7 -39 9 -5 3 -210 796 -219 844 -5 29
-4 33 8 24 8 -6 124 -96 259 -201z m1532 -110 c39 -35 11 -103 -43 -103 -30 0
-59 31 -59 64 0 48 64 73 102 39z m-1118 -88 c43 -43 20 -105 -39 -105 -57 0
-85 60 -45 100 24 24 63 26 84 5z m961 -25 c9 -17 31 -38 50 -47 19 -9 35 -20
35 -25 0 -5 -50 -184 -111 -398 l-112 -389 -29 -7 c-23 -4 -35 -1 -48 12 -10
11 -165 185 -343 387 -324 368 -341 391 -304 414 6 3 195 23 421 44 226 20
414 37 418 38 4 0 15 -13 23 -29z m641 -143 c3 -2 9 -19 14 -36 l9 -32 -362
-339 c-199 -187 -363 -336 -365 -331 -1 4 49 190 113 412 98 344 119 407 141
425 l25 21 211 -58 c115 -32 212 -60 214 -62z m186 46 c22 -20 23 -61 1 -85
-34 -38 -103 -11 -103 40 0 54 62 81 102 45z m-1421 -440 c203 -229 338 -390
335 -398 -4 -10 -124 26 -500 151 l-496 166 0 29 c0 17 -7 43 -15 60 -17 33
-28 14 171 299 l52 75 56 1 57 1 340 -384z m-763 0 c31 -28 35 -56 11 -86 -25
-32 -61 -35 -89 -7 -27 27 -25 56 5 85 29 30 46 31 73 8z m1268 -429 c23 -34
9 -75 -29 -88 -33 -12 -55 -1 -76 36 -36 62 66 112 105 52z"/>
</g>
</svg>
