<?xml version="1.0" standalone="no"?>
<!DOCTYPE svg PUBLIC "-//W3C//DTD SVG 20010904//EN"
 "http://www.w3.org/TR/2001/REC-SVG-20010904/DTD/svg10.dtd">
<svg version="1.0" xmlns="http://www.w3.org/2000/svg"
 width="457.000000pt" height="140.000000pt" viewBox="0 0 457.000000 140.000000"
 preserveAspectRatio="xMidYMid meet">

<g transform="translate(0.000000,140.000000) scale(0.100000,-0.100000)"
fill="#000000" stroke="none">
<path d="M3835 1207 c-14 -33 -254 -261 -278 -263 -31 -3 -35 -5 -40 -25 -4
-13 2 -28 15 -41 25 -25 91 -270 83 -308 -7 -33 12 -51 51 -48 39 2 313 -89
341 -114 29 -26 56 -20 67 17 12 38 214 228 245 230 40 3 54 45 22 67 -24 17
-83 297 -74 352 5 31 3 36 -18 40 -13 3 -31 4 -39 4 -35 -2 -286 84 -299 103
-22 31 -60 24 -76 -14z m55 -1 c0 -8 -5 -18 -11 -22 -14 -8 -33 11 -25 25 10
16 36 13 36 -3z m185 -72 c63 -20 115 -40 115 -45 0 -4 -17 -13 -37 -18 -262
-70 -246 -72 -256 30 -3 37 -3 70 1 74 9 9 44 1 177 -41z m-204 5 c13 -46 9
-104 -9 -127 -14 -18 -46 -30 -136 -53 -65 -16 -122 -29 -127 -27 -11 4 244
238 256 234 5 -1 12 -13 16 -27z m379 -53 c0 -8 -5 -18 -11 -22 -14 -8 -33 11
-25 25 10 16 36 13 36 -3z m-45 -36 c11 -18 -78 -250 -95 -250 -22 0 -188 175
-177 186 7 7 232 71 254 73 6 1 15 -4 18 -9z m66 -167 c16 -76 29 -144 29
-150 0 -32 -144 5 -153 38 -3 11 6 51 20 87 14 37 34 91 45 120 11 29 22 51
25 48 3 -2 18 -67 34 -143z m-358 120 c9 -9 -13 -34 -24 -27 -14 8 -11 34 4
34 8 0 17 -3 20 -7z m-43 -37 c0 -17 -94 -195 -106 -200 -17 -6 -169 108 -169
127 0 7 54 26 120 44 114 30 155 38 155 29z m206 -191 c-3 -12 -257 -36 -269
-25 -10 9 69 181 91 198 15 12 26 3 99 -75 46 -48 81 -92 79 -98z m-506 129
c0 -8 -7 -14 -15 -14 -15 0 -21 21 -9 33 10 9 24 -2 24 -19z m91 -100 c84 -67
90 -89 42 -156 -19 -26 -41 -48 -49 -48 -8 0 -14 2 -14 5 0 3 -15 64 -34 135
-20 76 -30 127 -23 123 7 -4 42 -30 78 -59z m469 -44 c0 -11 -7 -20 -15 -20
-15 0 -21 21 -8 33 12 13 23 7 23 -13z m-344 -21 c10 -17 -13 -36 -27 -22 -12
12 -4 33 11 33 5 0 12 -5 16 -11z m298 -111 c-13 -45 -29 -100 -35 -120 -5
-21 -15 -38 -22 -38 -7 0 -53 46 -102 102 -106 120 -119 137 -111 146 4 3 64
11 134 16 114 10 129 9 144 -6 15 -15 15 -22 -8 -100z m149 80 c36 -9 47 -16
45 -29 -3 -18 -207 -213 -215 -206 -6 6 58 229 70 245 6 8 19 11 31 7 12 -3
43 -11 69 -17z m102 -8 c3 -5 4 -14 0 -20 -8 -13 -35 -1 -35 16 0 16 26 19 35
4z m-435 -130 c56 -63 97 -116 93 -117 -5 -2 -73 19 -153 45 -130 44 -145 51
-148 73 -3 34 63 121 88 117 11 -2 65 -55 120 -118z m-230 -16 c0 -14 -21 -19
-33 -7 -9 9 13 34 24 27 5 -3 9 -12 9 -20z m386 -115 c10 -17 -13 -36 -27 -22
-12 12 -4 33 11 33 5 0 12 -5 16 -11z"/>
<path d="M340 1159 c-36 -14 -88 -68 -112 -114 -46 -89 -30 -231 31 -274 75
-54 179 -46 243 18 l37 38 3 -40 c2 -22 9 -42 16 -45 10 -3 12 20 10 105 l-3
108 -82 3 c-72 2 -83 1 -83 -14 0 -14 10 -16 70 -12 l70 4 0 -32 c0 -36 -32
-88 -73 -118 -37 -27 -140 -29 -180 -3 -92 60 -74 261 30 332 53 35 139 36
181 0 16 -13 32 -22 36 -18 42 43 -115 93 -194 62z"/>
<path d="M2310 956 c0 -187 2 -216 15 -216 13 0 15 28 13 212 -2 158 -6 212
-15 216 -10 3 -13 -44 -13 -212z"/>
<path d="M2604 1148 c-3 -13 -31 -74 -60 -137 -46 -98 -57 -113 -74 -108 -23
6 -24 3 -9 -21 9 -14 6 -29 -17 -73 -16 -29 -30 -57 -32 -61 -2 -5 3 -8 11 -8
9 0 29 29 48 70 l32 70 41 0 c23 0 71 3 108 7 l68 6 35 -77 c22 -47 42 -76 51
-76 9 0 14 3 12 8 -2 4 -22 46 -46 94 -24 48 -65 140 -92 205 -27 65 -53 119
-58 121 -6 2 -14 -7 -18 -20z m65 -132 c23 -54 40 -101 37 -103 -2 -2 -44 -2
-93 -1 l-89 3 48 104 c27 57 50 102 52 100 2 -2 23 -49 45 -103z"/>
<path d="M2913 1158 c-44 -9 -55 -24 -27 -35 14 -5 15 -30 13 -191 -2 -138 0
-187 9 -190 9 -3 12 23 12 97 l0 101 48 0 c63 0 138 23 168 51 29 28 40 80 24
118 -22 54 -131 75 -247 49z m190 -29 c30 -16 37 -28 37 -66 0 -56 -87 -103
-190 -103 l-30 0 0 84 c0 58 4 86 13 89 24 10 149 7 170 -4z"/>
<path d="M3270 955 c0 -184 2 -215 15 -215 13 0 15 30 15 209 0 176 -2 210
-15 215 -13 5 -15 -23 -15 -209z"/>
<path d="M740 1008 c-47 -32 -89 -113 -82 -158 16 -111 101 -149 200 -88 18
11 37 30 44 41 10 21 10 21 -8 6 -61 -53 -146 -65 -182 -26 -11 12 -23 34 -27
48 -7 29 10 39 73 39 48 0 119 20 133 36 19 23 12 74 -12 100 -30 32 -93 33
-139 2z m118 -14 c14 -9 22 -26 22 -43 0 -36 -31 -51 -122 -58 -76 -7 -82 0
-49 51 40 60 104 82 149 50z"/>
<path d="M1004 1014 c3 -9 6 -74 6 -145 0 -71 4 -129 9 -129 5 0 10 41 13 90
5 102 20 133 80 163 44 22 81 15 97 -19 6 -14 11 -72 11 -129 0 -63 4 -105 10
-105 6 0 10 46 10 119 0 105 -2 121 -21 145 -34 44 -101 35 -161 -22 l-28 -26
0 37 c0 27 -4 37 -16 37 -11 0 -14 -5 -10 -16z"/>
<path d="M1429 1007 c-18 -12 -44 -40 -56 -62 -12 -22 -26 -45 -32 -52 -7 -8
-7 -14 -1 -18 6 -3 10 -17 10 -31 0 -107 125 -147 209 -67 l36 35 -46 -26
c-57 -32 -120 -35 -149 -6 -20 20 -37 67 -27 76 3 3 40 10 83 15 108 14 134
29 134 79 0 74 -89 106 -161 57z m122 -18 c27 -27 21 -60 -13 -77 -39 -18
-158 -28 -158 -13 0 26 33 73 63 91 41 26 82 25 108 -1z"/>
<path d="M1692 888 c2 -102 6 -143 16 -146 9 -3 12 18 12 82 0 94 16 148 48
165 26 14 68 14 93 1 14 -8 19 -7 19 3 0 44 -82 51 -129 11 l-31 -26 0 26 c0
17 -6 26 -15 26 -13 0 -15 -20 -13 -142z"/>
<path d="M1994 986 c-112 -118 -50 -303 81 -240 20 9 43 28 52 40 20 32 27 30
38 -8 6 -17 16 -34 24 -36 11 -4 12 1 6 19 -5 13 -10 78 -10 144 -2 79 -6 120
-14 123 -6 2 -11 -6 -11 -18 l0 -21 -26 20 c-16 12 -41 21 -62 21 -29 0 -43
-8 -78 -44z m134 2 c33 -22 33 -24 28 -76 -8 -68 -29 -108 -69 -132 -66 -41
-116 -20 -124 52 -7 60 24 130 69 158 42 25 54 25 96 -2z"/>
<path d="M1580 392 c0 -55 4 -92 12 -100 15 -15 48 -16 48 -2 0 6 -7 10 -15
10 -12 0 -15 17 -15 90 0 73 -3 90 -15 90 -12 0 -15 -16 -15 -88z"/>
<path d="M610 450 c-31 -31 -28 -113 6 -147 33 -33 38 -26 15 20 -21 41 -19
91 5 118 29 33 6 41 -26 9z"/>
<path d="M670 461 c0 -11 26 -22 34 -14 3 3 3 10 0 14 -7 12 -34 11 -34 0z"/>
<path d="M2984 388 c-15 -46 -29 -89 -32 -95 -2 -7 2 -13 10 -13 8 0 24 28 38
69 13 39 27 68 31 65 4 -2 17 -33 29 -69 12 -37 27 -65 35 -65 10 0 5 25 -18
95 -41 124 -55 126 -93 13z"/>
<path d="M3160 375 c0 -57 4 -95 10 -95 6 0 10 38 10 95 0 57 -4 95 -10 95 -6
0 -10 -38 -10 -95z"/>
<path d="M3200 460 c0 -5 9 -10 20 -10 13 0 22 -9 26 -25 7 -27 -10 -55 -32
-55 -8 0 -14 -4 -14 -10 0 -16 26 -12 50 8 28 22 30 70 4 89 -21 15 -54 17
-54 3z"/>
<path d="M3320 375 c0 -78 3 -95 15 -95 12 0 15 17 15 95 0 78 -3 95 -15 95
-12 0 -15 -17 -15 -95z"/>
<path d="M808 418 c-41 -31 -41 -99 -2 -125 25 -16 74 -11 74 7 0 6 -11 8 -24
4 -46 -11 -76 55 -40 90 21 21 14 41 -8 24z"/>
<path d="M850 419 c0 -6 7 -17 15 -25 23 -23 18 -32 -17 -37 -29 -3 -27 -4 10
-5 45 -2 53 10 32 47 -11 21 -40 35 -40 20z"/>
<path d="M960 355 c0 -43 4 -75 10 -75 6 0 10 32 10 75 0 43 -4 75 -10 75 -6
0 -10 -32 -10 -75z"/>
<path d="M1005 420 c-3 -5 1 -10 9 -10 22 0 36 -32 36 -84 0 -25 5 -46 10 -46
6 0 10 28 10 65 0 53 -3 66 -19 75 -25 13 -38 13 -46 0z"/>
<path d="M1146 407 c-31 -31 -33 -65 -5 -101 20 -26 42 -32 73 -20 28 11 17
26 -13 19 -24 -5 -33 -2 -46 18 -16 26 -13 50 13 80 25 28 6 31 -22 4z"/>
<path d="M1190 422 c0 -5 7 -15 15 -22 25 -20 17 -38 -17 -43 -25 -3 -22 -4
15 -5 49 -2 55 4 37 38 -12 22 -50 46 -50 32z"/>
<path d="M1306 423 c-3 -3 -6 -37 -6 -75 0 -54 3 -68 15 -68 12 0 15 14 15 69
0 65 -8 90 -24 74z"/>
<path d="M1353 423 c-20 -8 -15 -23 7 -23 11 0 20 7 20 15 0 15 -6 17 -27 8z"/>
<path d="M1448 423 c-10 -2 -18 -9 -18 -14 0 -5 12 -6 26 -3 17 4 29 2 35 -7
12 -20 11 -66 -2 -91 -9 -17 -9 -20 4 -15 8 3 19 1 25 -5 7 -7 9 9 5 53 -7 79
-22 96 -75 82z"/>
<path d="M1750 325 c0 -81 3 -106 13 -102 8 2 12 32 12 102 0 70 -4 100 -12
103 -10 3 -13 -22 -13 -103z"/>
<path d="M1797 423 c-13 -12 -7 -20 15 -19 15 1 25 -7 32 -26 13 -37 -6 -78
-36 -78 -16 0 -19 -3 -11 -11 30 -30 83 18 83 76 0 42 -59 83 -83 58z"/>
<path d="M1927 423 c-4 -3 -7 -30 -7 -58 0 -54 19 -85 53 -85 25 0 30 18 5 22
-20 3 -23 10 -26 58 -3 54 -12 77 -25 63z"/>
<path d="M2014 416 c-10 -25 1 -129 14 -134 9 -3 12 16 12 72 0 46 -4 76 -10
76 -6 0 -13 -6 -16 -14z"/>
<path d="M2090 356 c0 -62 3 -76 15 -76 13 0 15 12 13 72 -2 46 -7 73 -15 76
-10 3 -13 -16 -13 -72z"/>
<path d="M2143 423 c-20 -8 -15 -23 7 -23 11 0 20 7 20 15 0 15 -6 17 -27 8z"/>
<path d="M2212 328 c4 -133 23 -134 23 -1 0 70 -4 98 -13 101 -10 3 -12 -19
-10 -100z"/>
<path d="M2257 423 c-13 -12 -7 -20 15 -19 15 1 25 -7 32 -26 13 -37 -6 -78
-36 -78 -16 0 -19 -3 -11 -11 30 -30 83 18 83 76 0 42 -59 83 -83 58z"/>
<path d="M2407 409 c-35 -27 -37 -79 -5 -109 12 -11 25 -20 30 -20 13 0 9 17
-7 30 -20 17 -19 69 2 92 24 27 10 32 -20 7z"/>
<path d="M2450 421 c0 -5 7 -14 15 -21 8 -7 15 -27 15 -45 0 -18 -7 -38 -15
-45 -17 -14 -20 -30 -5 -30 39 0 66 87 38 122 -15 18 -48 31 -48 19z"/>
<path d="M2572 418 c-17 -17 -15 -58 3 -65 22 -8 30 4 15 22 -10 12 -10 19 -2
27 7 7 12 16 12 20 0 12 -14 10 -28 -4z"/>
<path d="M2610 421 c0 -12 28 -22 35 -12 3 5 -2 12 -11 15 -21 8 -24 8 -24 -3z"/>
<path d="M2727 409 c-62 -48 -5 -151 67 -123 28 11 18 26 -12 19 -51 -11 -75
53 -37 95 26 28 13 34 -18 9z"/>
<path d="M2770 422 c0 -5 7 -15 15 -22 25 -20 17 -38 -17 -43 -25 -3 -22 -4
15 -5 49 -2 55 4 37 38 -12 22 -50 46 -50 32z"/>
<path d="M670 370 c0 -5 7 -10 15 -10 21 0 19 -47 -2 -59 -10 -5 -15 -13 -11
-17 4 -4 19 1 33 10 19 12 25 25 25 51 0 32 -2 35 -30 35 -16 0 -30 -4 -30
-10z"/>
<path d="M1438 359 c-23 -13 -24 -65 -2 -73 23 -9 30 0 14 19 -15 18 -6 45 15
45 8 0 15 5 15 10 0 13 -20 12 -42 -1z"/>
<path d="M2610 352 c0 -4 5 -13 12 -20 9 -9 9 -15 0 -24 -19 -19 -14 -30 8
-18 22 12 26 40 8 58 -14 14 -28 16 -28 4z"/>
<path d="M3010 330 c0 -5 9 -10 20 -10 11 0 20 5 20 10 0 6 -9 10 -20 10 -11
0 -20 -4 -20 -10z"/>
<path d="M2560 300 c0 -13 28 -25 38 -16 3 4 0 11 -8 16 -20 13 -30 12 -30 0z"/>
</g>
</svg>
